<svg width="11" height="20" viewBox="0 0 11 20" fill="none" xmlns="http://www.w3.org/2000/svg">
<path fill-rule="evenodd" clip-rule="evenodd" d="M10.6339 0.291948C10.4364 0.10435 10.1743 -0.000244141 9.90192 -0.000244141C9.62949 -0.000244141 9.36747 0.10435 9.16992 0.291948L0.606921 8.55595C0.415242 8.73811 0.262615 8.95736 0.158321 9.20035C0.0540263 9.44335 0.000244141 9.70502 0.000244141 9.96945C0.000244141 10.2339 0.0540263 10.4955 0.158321 10.7385C0.262615 10.9815 0.415242 11.2008 0.606921 11.3829L9.23192 19.7079C9.63192 20.0929 10.2799 20.0979 10.6859 19.7179C10.7842 19.6274 10.8629 19.5176 10.9169 19.3955C10.971 19.2733 10.9994 19.1412 11.0004 19.0076C11.0013 18.874 10.9748 18.7416 10.9224 18.6187C10.87 18.4957 10.7929 18.3848 10.6959 18.2929L2.80292 10.6759C2.707 10.5849 2.63062 10.4752 2.57843 10.3537C2.52624 10.2321 2.49932 10.1012 2.49932 9.96895C2.49932 9.83667 2.52624 9.70578 2.57843 9.58423C2.63062 9.46269 2.707 9.35303 2.80292 9.26195L10.6329 1.70495C10.7288 1.61395 10.8052 1.50438 10.8574 1.38292C10.9095 1.26146 10.9364 1.13064 10.9364 0.998448C10.9364 0.866251 10.9095 0.735439 10.8574 0.613977C10.8052 0.492516 10.7298 0.382948 10.6339 0.291948Z" fill="white"/>
</svg>
