<svg width="25" height="24" viewBox="0 0 25 24" fill="none" xmlns="http://www.w3.org/2000/svg">
<path d="M10.98 3C10.0739 3.00316 9.20592 3.36003 8.56524 3.99276C7.92455 4.62549 7.5632 5.48275 7.56 6.37756C7.56 6.97802 7.73252 7.53569 8.01144 8.01981C6.64268 8.81091 5.57108 9.93376 4.995 11.2563H4.9C4.84981 11.2573 4.79994 11.2483 4.75336 11.2298C4.70679 11.2113 4.66449 11.1837 4.62899 11.1486C4.5935 11.1136 4.56555 11.0718 4.54682 11.0258C4.52809 10.9798 4.51896 10.9305 4.52 10.881C4.52 10.7489 4.5884 10.6438 4.68644 10.5762L3.80712 9.35657C3.55834 9.5278 3.35507 9.75578 3.21456 10.0212C3.07404 10.2866 3.00044 10.5815 3 10.881C3 11.8042 3.69768 12.5607 4.59144 12.7109C4.55268 12.9736 4.52 13.2355 4.52 13.508C4.52 15.3784 5.52624 16.9996 6.99 18.199C6.80608 18.9496 6.89804 19.7497 7.48856 20.3336C7.92453 20.7605 8.51359 21 9.1275 21C9.74141 21 10.3305 20.7605 10.7664 20.3336L11.0514 20.0522C11.645 20.1603 12.2416 20.2631 12.88 20.2631C13.5184 20.2631 14.115 20.1603 14.7086 20.0522L14.9936 20.3336C15.4295 20.7605 16.0186 21 16.6325 21C17.2464 21 17.8355 20.7605 18.2714 20.3336C18.8498 19.7617 18.9364 18.9849 18.77 18.2456C19.3795 17.7568 19.9013 17.1702 20.3136 16.5102H22V10.5057H20.2664C19.9902 10.0635 19.6633 9.65422 19.2921 9.28602L19.72 6.96376V6.00228H18.96C18.96 6.00228 17.1345 6.0323 15.5871 7.17542C15.1807 7.0602 14.7685 6.966 14.3521 6.8932C14.383 6.72608 14.399 6.55419 14.4 6.37756C14.4 4.5214 12.8595 3 10.98 3ZM10.98 4.50114C12.0364 4.50114 12.88 5.33427 12.88 6.37756C12.88 6.50666 12.8564 6.62975 12.8321 6.75285C11.6062 6.75885 10.4488 6.99303 9.38932 7.38633C9.18668 7.08805 9.07896 6.73675 9.08 6.37756C9.08 5.33427 9.9236 4.50114 10.98 4.50114ZM18.01 7.64452C18.0222 7.64152 18.0222 7.64677 18.0336 7.64452L17.7486 9.35582L17.6779 9.75512L18.01 10.0366C18.5169 10.4712 18.9359 10.9965 19.245 11.585L19.4586 12.0068H20.48V15.0091H19.4586L19.245 15.4317C18.8741 16.1552 18.2889 16.7917 17.535 17.3306L16.9886 17.7299L17.3214 18.3401C17.5023 18.6419 17.4696 19.0141 17.2021 19.2783C17.13 19.3526 17.0434 19.4117 16.9475 19.4521C16.8516 19.4925 16.7485 19.5133 16.6443 19.5133C16.5401 19.5133 16.4369 19.4925 16.341 19.4521C16.2452 19.4117 16.1586 19.3526 16.0864 19.2783L15.54 18.7379L15.2314 18.4572L14.8271 18.551C14.21 18.6914 13.5541 18.7619 12.88 18.7619C12.2248 18.764 11.5714 18.6932 10.9321 18.551L10.5293 18.4572L10.22 18.7387L9.67356 19.2776C9.60141 19.352 9.51476 19.4112 9.41882 19.4517C9.32289 19.4921 9.21965 19.513 9.11534 19.513C9.01103 19.513 8.90779 19.4921 8.81186 19.4517C8.71592 19.4112 8.62927 19.352 8.55712 19.2776C8.43204 19.158 8.35209 18.9997 8.33053 18.8291C8.30897 18.6585 8.34708 18.4857 8.43856 18.3394L8.77144 17.7299L8.225 17.3314C6.85016 16.3451 6.04 15.0001 6.04 13.508C6.04 10.6993 9.0116 8.25398 12.88 8.25398C13.8148 8.25398 14.7055 8.39209 15.5164 8.65254L15.92 8.79364L16.2529 8.51218C16.7955 8.03407 17.4666 7.77662 18.01 7.64452ZM17.44 12.0068C17.022 12.0068 16.68 12.3446 16.68 12.7574C16.68 13.1702 17.022 13.508 17.44 13.508C17.858 13.508 18.2 13.1702 18.2 12.7574C18.2 12.3446 17.858 12.0068 17.44 12.0068Z" fill="white"/>
</svg>
