<svg width="12" height="12" viewBox="0 0 12 12" fill="none" xmlns="http://www.w3.org/2000/svg">
<path d="M10.4505 5.283C10.4097 5.19821 10.3457 5.12667 10.266 5.07661C10.1863 5.02655 10.0941 4.99999 10 5H8.00002V1.5C8.00002 1.36739 7.94734 1.24021 7.85357 1.14645C7.7598 1.05268 7.63262 1 7.50002 1H4.50002C4.36741 1 4.24023 1.05268 4.14646 1.14645C4.05269 1.24021 4.00002 1.36739 4.00002 1.5V5H2.00002C1.90588 5.00016 1.8137 5.02686 1.73406 5.07704C1.65442 5.12723 1.59054 5.19885 1.54976 5.28369C1.50899 5.36854 1.49296 5.46316 1.50353 5.5567C1.5141 5.65023 1.55083 5.7389 1.60952 5.8125L5.60952 10.8125C5.65636 10.8711 5.71578 10.9184 5.78337 10.9509C5.85097 10.9834 5.92501 11.0002 6.00002 11.0002C6.07502 11.0002 6.14906 10.9834 6.21666 10.9509C6.28425 10.9184 6.34367 10.8711 6.39052 10.8125L10.3905 5.8125C10.5105 5.662 10.5335 5.4565 10.4505 5.283ZM6.00002 9.6995L3.04052 6H5.00002V2H7.00002V6H8.95952L6.00002 9.6995Z" fill="white" fill-opacity="0.6"/>
</svg>
