<svg width="12" height="12" viewBox="0 0 12 12" fill="none" xmlns="http://www.w3.org/2000/svg">
<path d="M6.39052 1.1874C6.20002 0.949902 5.80001 0.949902 5.60952 1.1874L1.60952 6.1874C1.55083 6.26101 1.5141 6.34967 1.50353 6.44321C1.49296 6.53675 1.50899 6.63137 1.54976 6.71621C1.59054 6.80105 1.65442 6.87268 1.73406 6.92286C1.8137 6.97304 1.90588 6.99974 2.00002 6.9999H4.00002V10.4999C4.00002 10.6325 4.05269 10.7597 4.14646 10.8535C4.24023 10.9472 4.36741 10.9999 4.50002 10.9999H7.50002C7.63262 10.9999 7.7598 10.9472 7.85357 10.8535C7.94734 10.7597 8.00002 10.6325 8.00002 10.4999V6.9999H10C10.0941 6.99974 10.1863 6.97304 10.266 6.92286C10.3456 6.87268 10.4095 6.80105 10.4503 6.71621C10.491 6.63137 10.5071 6.53675 10.4965 6.44321C10.4859 6.34967 10.4492 6.26101 10.3905 6.1874L6.39052 1.1874ZM7.50002 5.9999H7.00002V9.9999H5.00002V5.9999H3.04052L6.00002 2.3004L8.95952 5.9999H7.50002Z" fill="white" fill-opacity="0.6"/>
</svg>
