<svg width="16" height="16" viewBox="0 0 16 16" fill="none" xmlns="http://www.w3.org/2000/svg">
<path d="M5.3213 0.526614C3.72265 1.0812 2.34398 2.13382 1.38779 3.52987C0.4316 4.92591 -0.0517091 6.59179 0.00885461 8.28282C0.0694183 9.97385 0.670662 11.6009 1.72427 12.925C2.77788 14.249 4.22833 15.2003 5.86255 15.6391C7.18746 15.981 8.57556 15.996 9.90755 15.6829C11.1142 15.4118 12.2298 14.8321 13.1451 14.0004C14.0977 13.1083 14.7891 11.9735 15.1451 10.7179C15.532 9.35245 15.6008 7.91653 15.3463 6.52036H7.9063V9.60661H12.2151C12.1289 10.0988 11.9444 10.5687 11.6725 10.9879C11.4006 11.4072 11.0469 11.7672 10.6326 12.0466C10.1064 12.3947 9.5133 12.6288 8.8913 12.7341C8.26748 12.8501 7.62762 12.8501 7.0038 12.7341C6.37154 12.6034 5.77342 12.3424 5.24755 11.9679C4.40274 11.3698 3.7684 10.5203 3.43505 9.54036C3.09607 8.54211 3.09607 7.45987 3.43505 6.46161C3.67233 5.76188 4.06459 5.12478 4.58255 4.59786C5.17529 3.9838 5.92572 3.54486 6.7515 3.32921C7.57728 3.11356 8.4465 3.12953 9.2638 3.37536C9.90226 3.57135 10.4861 3.91379 10.9688 4.37536C11.4546 3.89203 11.9396 3.40745 12.4238 2.92161C12.6738 2.66036 12.9463 2.41161 13.1926 2.14411C12.4558 1.45846 11.5909 0.924935 10.6476 0.574114C8.92968 -0.0496489 7.05002 -0.0664119 5.3213 0.526614Z" fill="#E6D0D0"/>
<path d="M5.32128 0.526489C7.04986 -0.0669399 8.92952 -0.0506181 10.6475 0.572739C11.591 0.925943 12.4555 1.46204 13.1913 2.15024C12.9413 2.41774 12.6775 2.66774 12.4225 2.92774C11.9375 3.41191 11.4529 3.89441 10.9688 4.37524C10.4861 3.91366 9.90224 3.57123 9.26378 3.37524C8.44675 3.12854 7.57755 3.11165 6.75155 3.32642C5.92555 3.54119 5.17467 3.97932 4.58128 4.59274C4.06332 5.11966 3.67106 5.75676 3.43378 6.45649L0.842529 4.45024C1.77004 2.61094 3.37597 1.20402 5.32128 0.526489Z" fill="#E33629"/>
<path d="M0.154996 6.4377C0.294273 5.74744 0.525501 5.07898 0.842496 4.4502L3.43375 6.46145C3.09476 7.4597 3.09476 8.54194 3.43375 9.5402C2.57041 10.2069 1.70666 10.8769 0.842496 11.5502C0.0489348 9.97059 -0.193088 8.17082 0.154996 6.4377Z" fill="#F8BD00"/>
<path d="M7.9062 6.51904H15.3462C15.6007 7.91521 15.5318 9.35113 15.1449 10.7165C14.789 11.9721 14.0975 13.107 13.1449 13.999C12.3087 13.3465 11.4687 12.699 10.6324 12.0465C11.047 11.7669 11.4009 11.4064 11.6728 10.9867C11.9448 10.567 12.1291 10.0967 12.2149 9.60404H7.9062C7.90495 8.57654 7.9062 7.54779 7.9062 6.51904Z" fill="#587DBD"/>
<path d="M0.841309 11.5503C1.70548 10.8836 2.56923 10.2136 3.43256 9.54028C3.76657 10.5205 4.40181 11.3702 5.24756 11.9678C5.77507 12.3406 6.37447 12.5994 7.00756 12.7278C7.63138 12.8438 8.27124 12.8438 8.89506 12.7278C9.51705 12.6225 10.1102 12.3883 10.6363 12.0403C11.4726 12.6928 12.3126 13.3403 13.1488 13.9928C12.2337 14.8249 11.1181 15.4051 9.91131 15.6765C8.57932 15.9897 7.19121 15.9747 5.86631 15.6328C4.81844 15.353 3.83965 14.8598 2.99131 14.184C2.09339 13.4711 1.36 12.5727 0.841309 11.5503Z" fill="#319F43"/>
</svg>
